<?xml version="1.0" encoding="utf-8"?>
<!-- Generator: Adobe Illustrator 24.2.1, SVG Export Plug-In . SVG Version: 6.00 Build 0)  -->
<svg version="1.1" id="logo-ipsa" xmlns="http://www.w3.org/2000/svg" xmlns:xlink="http://www.w3.org/1999/xlink" x="0px" y="0px"
	 viewBox="0 0 271.6 191.8" style="enable-background:new 0 0 271.6 191.8;" xml:space="preserve">
<path d="M46.8,81.5l32.6-48.2l0.2-0.1l0.3,0l6.2,4.3l0.1,0.2l-0.1,0.2L53.3,86.7l-0.2,0.3L53,87l-0.4,0l-6.1-4.1l-0.2-0.3l-0.1-0.3
	l0.1-0.3L46.8,81.5 M47.7,154.4l0-61.7l0.2-0.3l0.1-0.1l0.4,0l7.4,0l0.2,0l0.1,0.1l0,62.1l0,0.2l-0.1,0.1l-0.4,0.1l-7.6,0l-0.1-0.1
	l-0.1-0.1L47.7,154.4z M83.7,154.8l-0.4-0.1l-0.1-0.1l0-0.2l0-61.2l0.1-0.4l0.1-0.1l0.2-0.1l1.8-0.1l3.8-0.1l2.7-0.1l4.4,0l1.2-0.1
	l0.9,0l1.9,0l0.6,0.1l0.7,0l1.8,0.3l1.7,0.4l1.7,0.6l0.7,0.3l1.5,0.8l0.7,0.4l1.9,1.4l1.4,1.4l0.7,0.9l0.6,0.6l1.3,2l0.4,0.8
	l0.6,1.5l0.6,1.5l0.4,1.9l0.2,1.2l0.1,0.8v2.5l-0.1,0.6l0,0.7l-0.3,1.8l-0.4,1.7l-0.6,1.7l-0.7,1.6l-0.6,1l-0.7,0.9l-0.6,0.8
	l-0.6,0.8l-0.3,0.4l-0.3,0.4l-0.4,0.4l-0.5,0.4l-0.8,0.6l-1.7,1.3l-1.3,0.8l-1.3,0.8l-0.3,0.2l-1.5,0.6l-1.7,0.6l-2.5,0.7l-0.6,0.1
	l-0.4-0.1l-0.1-0.1l-0.5-1.1l-2.1-5.3l-0.1-0.3l0.3-0.2l1.2-0.2l2-0.5l1.8-0.7l0.9-0.5l1.2-0.6l1.3-1l0.9-0.9l0.3-0.4l0.3-0.4
	l0.8-1.1l0.5-0.9l0.3-0.6l0.2-0.9l0.4-1.9l0-1.6l0-1.1l-0.4-1.9l-0.6-1.7l-0.5-1.1l-0.9-1.3l-1.5-1.5l-1.2-0.8l-0.7-0.5l-1.5-0.6
	l-1.3-0.3l-1.4-0.2L98,99.8h-6l-0.4,0.1l-0.1,0.2v0.2v0.4l0,53.8l-0.1,0.2l-0.2,0.2l-0.2,0L83.7,154.8z M132,146.3l0.4-0.3l1.3-1
	l1.6-1.4l0.4-0.3l1-0.9l0.5-0.4l0.3,0l0.2,0.2l0.7,0.7l1.9,1.8l1.5,1.2l1,0.6l0.6,0.3l0.9,0.4l1,0.4l1.3,0.3l1,0.2l1.6,0l1.1-0.2
	l1.2-0.4l1.1-0.6l1.2-0.9l1.3-1.3l0.8-1.1l0.6-1.1l0.5-1.2l0.2-1.1l0.1-0.8l0-1.6l-0.3-1.7l-0.6-1.5l-0.7-1l-0.6-0.8l-0.6-0.6
	l-0.3-0.4l-1.4-1.4l-0.4-0.3l-1-0.9l-0.7-0.5l-1.5-1.1l-3.3-2.4l-3-2.1l-1.5-1.1l-1.9-1.6l-0.8-0.6l-1.1-1l-0.9-0.9l-0.7-0.9l-0.6-1
	l-0.5-0.7l-0.4-0.7l-0.4-0.7l-0.5-1.1l-0.5-1.4l-0.4-2l-0.1-0.8l0-2.5l0.3-2l0.4-1.5l0.7-1.9l0.5-0.9l1.1-1.7l0.8-1l0.7-0.9l0.6-0.5
	l0.8-0.6l1.2-0.9l1-0.6l1.4-0.7l1.9-0.7l2-0.5l1.6-0.2l2.7,0l0.8,0.1l1.2,0.2l0.9,0.2l0.9,0.3l1.5,0.5l0.8,0.4l0.9,0.4l0.4,0.3
	l0.7,0.4l0.7,0.4l1.2,0.9l1.8,1.4l0.7,0.7l0.4,0.3l0.2,0.3l0.1,0.2l0,0.2l-0.2,0.3l-3,3l-0.6,0.6l-1.4,1.4l-0.3,0.1l-0.2,0l-0.9-0.8
	l-1.2-1.1l-1.1-0.8l-1.3-0.8l-0.8-0.4l-1.2-0.5l-1.1-0.3l-0.8-0.1l-0.9,0h-0.3l-1.1,0l-1.5,0.4l-0.7,0.3l-0.7,0.4l-0.8,0.6l-1.3,1.3
	l-0.6,1l-0.4,0.8l-0.1,0.1l-0.3,1.3l-0.1,1l0,1.3l0.2,1.2l0.2,0.7l0.8,1.5l0.9,1.2l1.4,1.4l1.3,1.1l1,0.7l6.8,4.8l2.4,1.7l1.3,1
	l1.3,1.1l0.9,0.9l0.3,0.2l0.3,0.4l0.9,1l0.5,0.6l0.9,1.2l0.8,1.2l0.3,0.6l0.3,0.6l0.5,0.9l0.4,1l0.4,1.4l0.3,1.1l0.2,1.4v3.4
	l-0.4,2.6l-0.5,2l-0.5,1.1l-0.4,0.9l-0.9,1.4l-0.8,1.2l-0.5,0.6l-0.9,0.9l-0.4,0.3l-0.7,0.7l-1.6,1.2l-0.7,0.4l-1,0.6l-1.4,0.7
	l-1.5,0.6l-1.7,0.4l-1.4,0.2l-1,0.1l-2.7,0l-2-0.3l-1.5-0.4l-1.2-0.4l-1.1-0.5l-1-0.4l-2.3-1.4l-1.6-1.1l-1-0.9l-0.4-0.3l-2.2-2.2
	l-0.3-0.4l-0.3-0.4l-0.2-0.3V147L132,146.3 M195.9,97.4l1.3-4.1l0.2-0.3l0.5-0.1l10.3,0l0.2,0.1l0.2,0.3l16.7,60.7l0.1,0.6l0,0.2
	l-0.1,0.1l-0.3,0.1l-8.1,0l-0.3-0.1l-0.2-0.3l-10.5-41.1l-0.5-2l-0.7-3.9l-1.5-9.5l-0.1-0.2l-0.1-0.1h-0.2l-0.2,0.1l-0.2,0.3
	l-1.7,9.5l-0.8,3.7l-0.5,2.1l-10.9,41.1l-0.2,0.2l-0.4,0.1l-7.8,0l-0.3-0.2l-0.1-0.1l0.1-0.3L195.9,97.4z"/>
</svg>
